<svg xmlns="http://www.w3.org/2000/svg" viewBox="0 0 32 32" width="512" height="512" shape-rendering="crispEdges">
<rect x="13" y="0" width="6" height="1" fill="#23142f"/>
<rect x="10" y="1" width="4" height="1" fill="#23142f"/>
<rect x="14" y="1" width="4" height="1" fill="#8a64b0"/>
<rect x="18" y="1" width="4" height="1" fill="#23142f"/>
<rect x="8" y="2" width="3" height="1" fill="#23142f"/>
<rect x="11" y="2" width="4" height="1" fill="#8a64b0"/>
<rect x="15" y="2" width="2" height="1" fill="#5b3a86"/>
<rect x="17" y="2" width="4" height="1" fill="#8a64b0"/>
<rect x="21" y="2" width="3" height="1" fill="#23142f"/>
<rect x="6" y="3" width="3" height="1" fill="#23142f"/>
<rect x="9" y="3" width="3" height="1" fill="#8a64b0"/>
<rect x="12" y="3" width="1" height="1" fill="#5b3a86"/>
<rect x="13" y="3" width="6" height="1" fill="#24452a"/>
<rect x="19" y="3" width="1" height="1" fill="#5b3a86"/>
<rect x="20" y="3" width="2" height="1" fill="#8a64b0"/>
<rect x="22" y="3" width="1" height="1" fill="#5b3a86"/>
<rect x="23" y="3" width="3" height="1" fill="#23142f"/>
<rect x="5" y="4" width="2" height="1" fill="#23142f"/>
<rect x="7" y="4" width="3" height="1" fill="#8a64b0"/>
<rect x="10" y="4" width="1" height="1" fill="#5b3a86"/>
<rect x="11" y="4" width="2" height="1" fill="#24452a"/>
<rect x="13" y="4" width="3" height="1" fill="#5c9a3e"/>
<rect x="16" y="4" width="3" height="1" fill="#3f7a37"/>
<rect x="19" y="4" width="2" height="1" fill="#24452a"/>
<rect x="21" y="4" width="4" height="1" fill="#5b3a86"/>
<rect x="25" y="4" width="2" height="1" fill="#23142f"/>
<rect x="4" y="5" width="2" height="1" fill="#23142f"/>
<rect x="6" y="5" width="2" height="1" fill="#8a64b0"/>
<rect x="8" y="5" width="3" height="1" fill="#5b3a86"/>
<rect x="11" y="5" width="1" height="1" fill="#24452a"/>
<rect x="12" y="5" width="2" height="1" fill="#8cc152"/>
<rect x="14" y="5" width="3" height="1" fill="#5c9a3e"/>
<rect x="17" y="5" width="3" height="1" fill="#3f7a37"/>
<rect x="20" y="5" width="1" height="1" fill="#24452a"/>
<rect x="21" y="5" width="5" height="1" fill="#5b3a86"/>
<rect x="26" y="5" width="2" height="1" fill="#23142f"/>
<rect x="3" y="6" width="2" height="1" fill="#23142f"/>
<rect x="5" y="6" width="2" height="1" fill="#8a64b0"/>
<rect x="7" y="6" width="3" height="1" fill="#5b3a86"/>
<rect x="10" y="6" width="1" height="1" fill="#24452a"/>
<rect x="11" y="6" width="1" height="1" fill="#5c9a3e"/>
<rect x="12" y="6" width="3" height="1" fill="#8cc152"/>
<rect x="15" y="6" width="2" height="1" fill="#5c9a3e"/>
<rect x="17" y="6" width="4" height="1" fill="#3f7a37"/>
<rect x="21" y="6" width="1" height="1" fill="#24452a"/>
<rect x="22" y="6" width="5" height="1" fill="#5b3a86"/>
<rect x="27" y="6" width="2" height="1" fill="#23142f"/>
<rect x="3" y="7" width="1" height="1" fill="#23142f"/>
<rect x="4" y="7" width="2" height="1" fill="#8a64b0"/>
<rect x="6" y="7" width="4" height="1" fill="#5b3a86"/>
<rect x="10" y="7" width="1" height="1" fill="#24452a"/>
<rect x="11" y="7" width="1" height="1" fill="#5c9a3e"/>
<rect x="12" y="7" width="2" height="1" fill="#8cc152"/>
<rect x="14" y="7" width="3" height="1" fill="#5c9a3e"/>
<rect x="17" y="7" width="4" height="1" fill="#3f7a37"/>
<rect x="21" y="7" width="1" height="1" fill="#24452a"/>
<rect x="22" y="7" width="6" height="1" fill="#5b3a86"/>
<rect x="28" y="7" width="1" height="1" fill="#23142f"/>
<rect x="2" y="8" width="2" height="1" fill="#23142f"/>
<rect x="4" y="8" width="1" height="1" fill="#8a64b0"/>
<rect x="5" y="8" width="4" height="1" fill="#5b3a86"/>
<rect x="9" y="8" width="1" height="1" fill="#24452a"/>
<rect x="10" y="8" width="1" height="1" fill="#3f7a37"/>
<rect x="11" y="8" width="6" height="1" fill="#5c9a3e"/>
<rect x="17" y="8" width="5" height="1" fill="#3f7a37"/>
<rect x="22" y="8" width="1" height="1" fill="#24452a"/>
<rect x="23" y="8" width="5" height="1" fill="#5b3a86"/>
<rect x="28" y="8" width="2" height="1" fill="#23142f"/>
<rect x="2" y="9" width="1" height="1" fill="#23142f"/>
<rect x="3" y="9" width="2" height="1" fill="#8a64b0"/>
<rect x="5" y="9" width="4" height="1" fill="#5b3a86"/>
<rect x="9" y="9" width="1" height="1" fill="#24452a"/>
<rect x="10" y="9" width="1" height="1" fill="#3f7a37"/>
<rect x="11" y="9" width="6" height="1" fill="#5c9a3e"/>
<rect x="17" y="9" width="5" height="1" fill="#3f7a37"/>
<rect x="22" y="9" width="1" height="1" fill="#24452a"/>
<rect x="23" y="9" width="6" height="1" fill="#5b3a86"/>
<rect x="29" y="9" width="1" height="1" fill="#23142f"/>
<rect x="1" y="10" width="2" height="1" fill="#23142f"/>
<rect x="3" y="10" width="1" height="1" fill="#8a64b0"/>
<rect x="4" y="10" width="4" height="1" fill="#5b3a86"/>
<rect x="8" y="10" width="1" height="1" fill="#24452a"/>
<rect x="9" y="10" width="3" height="1" fill="#3f7a37"/>
<rect x="12" y="10" width="3" height="1" fill="#5c9a3e"/>
<rect x="15" y="10" width="8" height="1" fill="#3f7a37"/>
<rect x="23" y="10" width="1" height="1" fill="#24452a"/>
<rect x="24" y="10" width="4" height="1" fill="#5b3a86"/>
<rect x="28" y="10" width="1" height="1" fill="#45275e"/>
<rect x="29" y="10" width="2" height="1" fill="#23142f"/>
<rect x="1" y="11" width="1" height="1" fill="#23142f"/>
<rect x="2" y="11" width="2" height="1" fill="#8a64b0"/>
<rect x="4" y="11" width="3" height="1" fill="#5b3a86"/>
<rect x="7" y="11" width="1" height="1" fill="#24452a"/>
<rect x="8" y="11" width="3" height="1" fill="#5c9a3e"/>
<rect x="11" y="11" width="2" height="1" fill="#3f7a37"/>
<rect x="13" y="11" width="3" height="1" fill="#5c9a3e"/>
<rect x="16" y="11" width="2" height="1" fill="#3f7a37"/>
<rect x="18" y="11" width="4" height="1" fill="#5c9a3e"/>
<rect x="22" y="11" width="2" height="1" fill="#3f7a37"/>
<rect x="24" y="11" width="1" height="1" fill="#24452a"/>
<rect x="25" y="11" width="3" height="1" fill="#5b3a86"/>
<rect x="28" y="11" width="2" height="1" fill="#45275e"/>
<rect x="30" y="11" width="1" height="1" fill="#23142f"/>
<rect x="1" y="12" width="1" height="1" fill="#23142f"/>
<rect x="2" y="12" width="1" height="1" fill="#8a64b0"/>
<rect x="3" y="12" width="3" height="1" fill="#5b3a86"/>
<rect x="6" y="12" width="1" height="1" fill="#24452a"/>
<rect x="7" y="12" width="4" height="1" fill="#5c9a3e"/>
<rect x="11" y="12" width="1" height="1" fill="#3f7a37"/>
<rect x="12" y="12" width="5" height="1" fill="#5c9a3e"/>
<rect x="17" y="12" width="1" height="1" fill="#3f7a37"/>
<rect x="18" y="12" width="4" height="1" fill="#5c9a3e"/>
<rect x="22" y="12" width="3" height="1" fill="#3f7a37"/>
<rect x="25" y="12" width="1" height="1" fill="#24452a"/>
<rect x="26" y="12" width="3" height="1" fill="#5b3a86"/>
<rect x="29" y="12" width="1" height="1" fill="#45275e"/>
<rect x="30" y="12" width="1" height="1" fill="#23142f"/>
<rect x="0" y="13" width="2" height="1" fill="#23142f"/>
<rect x="2" y="13" width="1" height="1" fill="#8a64b0"/>
<rect x="3" y="13" width="3" height="1" fill="#5b3a86"/>
<rect x="6" y="13" width="1" height="1" fill="#24452a"/>
<rect x="7" y="13" width="16" height="1" fill="#5c9a3e"/>
<rect x="23" y="13" width="2" height="1" fill="#3f7a37"/>
<rect x="25" y="13" width="1" height="1" fill="#24452a"/>
<rect x="26" y="13" width="3" height="1" fill="#5b3a86"/>
<rect x="29" y="13" width="1" height="1" fill="#45275e"/>
<rect x="30" y="13" width="2" height="1" fill="#23142f"/>
<rect x="0" y="14" width="1" height="1" fill="#23142f"/>
<rect x="1" y="14" width="2" height="1" fill="#8a64b0"/>
<rect x="3" y="14" width="2" height="1" fill="#5b3a86"/>
<rect x="5" y="14" width="1" height="1" fill="#24452a"/>
<rect x="6" y="14" width="1" height="1" fill="#3f7a37"/>
<rect x="7" y="14" width="4" height="1" fill="#5c9a3e"/>
<rect x="11" y="14" width="1" height="1" fill="#3f7a37"/>
<rect x="12" y="14" width="5" height="1" fill="#5c9a3e"/>
<rect x="17" y="14" width="1" height="1" fill="#3f7a37"/>
<rect x="18" y="14" width="4" height="1" fill="#5c9a3e"/>
<rect x="22" y="14" width="2" height="1" fill="#3f7a37"/>
<rect x="24" y="14" width="2" height="1" fill="#2f5a2e"/>
<rect x="26" y="14" width="1" height="1" fill="#24452a"/>
<rect x="27" y="14" width="2" height="1" fill="#5b3a86"/>
<rect x="29" y="14" width="2" height="1" fill="#45275e"/>
<rect x="31" y="14" width="1" height="1" fill="#23142f"/>
<rect x="0" y="15" width="1" height="1" fill="#23142f"/>
<rect x="1" y="15" width="1" height="1" fill="#8a64b0"/>
<rect x="2" y="15" width="3" height="1" fill="#5b3a86"/>
<rect x="5" y="15" width="1" height="1" fill="#24452a"/>
<rect x="6" y="15" width="1" height="1" fill="#3f7a37"/>
<rect x="7" y="15" width="4" height="1" fill="#5c9a3e"/>
<rect x="11" y="15" width="1" height="1" fill="#3f7a37"/>
<rect x="12" y="15" width="5" height="1" fill="#5c9a3e"/>
<rect x="17" y="15" width="1" height="1" fill="#3f7a37"/>
<rect x="18" y="15" width="4" height="1" fill="#5c9a3e"/>
<rect x="22" y="15" width="2" height="1" fill="#3f7a37"/>
<rect x="24" y="15" width="2" height="1" fill="#2f5a2e"/>
<rect x="26" y="15" width="1" height="1" fill="#24452a"/>
<rect x="27" y="15" width="3" height="1" fill="#5b3a86"/>
<rect x="30" y="15" width="1" height="1" fill="#45275e"/>
<rect x="31" y="15" width="1" height="1" fill="#23142f"/>
<rect x="0" y="16" width="1" height="1" fill="#23142f"/>
<rect x="1" y="16" width="1" height="1" fill="#8a64b0"/>
<rect x="2" y="16" width="4" height="1" fill="#5b3a86"/>
<rect x="6" y="16" width="1" height="1" fill="#24452a"/>
<rect x="7" y="16" width="7" height="1" fill="#3f7a37"/>
<rect x="14" y="16" width="1" height="1" fill="#5c9a3e"/>
<rect x="15" y="16" width="8" height="1" fill="#3f7a37"/>
<rect x="23" y="16" width="2" height="1" fill="#2f5a2e"/>
<rect x="25" y="16" width="1" height="1" fill="#24452a"/>
<rect x="26" y="16" width="4" height="1" fill="#5b3a86"/>
<rect x="30" y="16" width="1" height="1" fill="#45275e"/>
<rect x="31" y="16" width="1" height="1" fill="#23142f"/>
<rect x="0" y="17" width="1" height="1" fill="#23142f"/>
<rect x="1" y="17" width="2" height="1" fill="#8a64b0"/>
<rect x="3" y="17" width="3" height="1" fill="#5b3a86"/>
<rect x="6" y="17" width="1" height="1" fill="#24452a"/>
<rect x="7" y="17" width="15" height="1" fill="#3f7a37"/>
<rect x="22" y="17" width="3" height="1" fill="#2f5a2e"/>
<rect x="25" y="17" width="1" height="1" fill="#24452a"/>
<rect x="26" y="17" width="3" height="1" fill="#5b3a86"/>
<rect x="29" y="17" width="2" height="1" fill="#45275e"/>
<rect x="31" y="17" width="1" height="1" fill="#23142f"/>
<rect x="0" y="18" width="2" height="1" fill="#23142f"/>
<rect x="2" y="18" width="1" height="1" fill="#8a64b0"/>
<rect x="3" y="18" width="4" height="1" fill="#5b3a86"/>
<rect x="7" y="18" width="1" height="1" fill="#24452a"/>
<rect x="8" y="18" width="4" height="1" fill="#2f5a2e"/>
<rect x="12" y="18" width="4" height="1" fill="#3f7a37"/>
<rect x="16" y="18" width="8" height="1" fill="#2f5a2e"/>
<rect x="24" y="18" width="1" height="1" fill="#24452a"/>
<rect x="25" y="18" width="4" height="1" fill="#5b3a86"/>
<rect x="29" y="18" width="1" height="1" fill="#45275e"/>
<rect x="30" y="18" width="2" height="1" fill="#23142f"/>
<rect x="1" y="19" width="1" height="1" fill="#23142f"/>
<rect x="2" y="19" width="1" height="1" fill="#8a64b0"/>
<rect x="3" y="19" width="5" height="1" fill="#5b3a86"/>
<rect x="8" y="19" width="6" height="1" fill="#24452a"/>
<rect x="14" y="19" width="4" height="1" fill="#2f5a2e"/>
<rect x="18" y="19" width="6" height="1" fill="#24452a"/>
<rect x="24" y="19" width="5" height="1" fill="#5b3a86"/>
<rect x="29" y="19" width="1" height="1" fill="#45275e"/>
<rect x="30" y="19" width="1" height="1" fill="#23142f"/>
<rect x="1" y="20" width="1" height="1" fill="#23142f"/>
<rect x="2" y="20" width="2" height="1" fill="#8a64b0"/>
<rect x="4" y="20" width="10" height="1" fill="#5b3a86"/>
<rect x="14" y="20" width="4" height="1" fill="#24452a"/>
<rect x="18" y="20" width="10" height="1" fill="#5b3a86"/>
<rect x="28" y="20" width="2" height="1" fill="#45275e"/>
<rect x="30" y="20" width="1" height="1" fill="#23142f"/>
<rect x="1" y="21" width="2" height="1" fill="#23142f"/>
<rect x="3" y="21" width="1" height="1" fill="#8a64b0"/>
<rect x="4" y="21" width="10" height="1" fill="#5b3a86"/>
<rect x="14" y="21" width="1" height="1" fill="#3e2415"/>
<rect x="15" y="21" width="2" height="1" fill="#9a6235"/>
<rect x="17" y="21" width="1" height="1" fill="#3e2415"/>
<rect x="18" y="21" width="10" height="1" fill="#5b3a86"/>
<rect x="28" y="21" width="1" height="1" fill="#45275e"/>
<rect x="29" y="21" width="2" height="1" fill="#23142f"/>
<rect x="2" y="22" width="1" height="1" fill="#23142f"/>
<rect x="3" y="22" width="11" height="1" fill="#5b3a86"/>
<rect x="14" y="22" width="1" height="1" fill="#3e2415"/>
<rect x="15" y="22" width="2" height="1" fill="#9a6235"/>
<rect x="17" y="22" width="1" height="1" fill="#3e2415"/>
<rect x="18" y="22" width="9" height="1" fill="#5b3a86"/>
<rect x="27" y="22" width="2" height="1" fill="#45275e"/>
<rect x="29" y="22" width="1" height="1" fill="#23142f"/>
<rect x="2" y="23" width="2" height="1" fill="#23142f"/>
<rect x="4" y="23" width="10" height="1" fill="#5b3a86"/>
<rect x="14" y="23" width="1" height="1" fill="#3e2415"/>
<rect x="15" y="23" width="2" height="1" fill="#9a6235"/>
<rect x="17" y="23" width="1" height="1" fill="#3e2415"/>
<rect x="18" y="23" width="9" height="1" fill="#5b3a86"/>
<rect x="27" y="23" width="1" height="1" fill="#45275e"/>
<rect x="28" y="23" width="2" height="1" fill="#23142f"/>
<rect x="3" y="24" width="1" height="1" fill="#23142f"/>
<rect x="4" y="24" width="10" height="1" fill="#5b3a86"/>
<rect x="14" y="24" width="1" height="1" fill="#3e2415"/>
<rect x="15" y="24" width="2" height="1" fill="#9a6235"/>
<rect x="17" y="24" width="1" height="1" fill="#3e2415"/>
<rect x="18" y="24" width="8" height="1" fill="#5b3a86"/>
<rect x="26" y="24" width="2" height="1" fill="#45275e"/>
<rect x="28" y="24" width="1" height="1" fill="#23142f"/>
<rect x="3" y="25" width="2" height="1" fill="#23142f"/>
<rect x="5" y="25" width="4" height="1" fill="#5b3a86"/>
<rect x="9" y="25" width="4" height="1" fill="#45275e"/>
<rect x="13" y="25" width="1" height="1" fill="#3e2415"/>
<rect x="14" y="25" width="4" height="1" fill="#9a6235"/>
<rect x="18" y="25" width="1" height="1" fill="#3e2415"/>
<rect x="19" y="25" width="4" height="1" fill="#45275e"/>
<rect x="23" y="25" width="2" height="1" fill="#5b3a86"/>
<rect x="25" y="25" width="2" height="1" fill="#45275e"/>
<rect x="27" y="25" width="2" height="1" fill="#23142f"/>
<rect x="4" y="26" width="2" height="1" fill="#23142f"/>
<rect x="6" y="26" width="2" height="1" fill="#5b3a86"/>
<rect x="8" y="26" width="5" height="1" fill="#45275e"/>
<rect x="13" y="26" width="6" height="1" fill="#3e2415"/>
<rect x="19" y="26" width="7" height="1" fill="#45275e"/>
<rect x="26" y="26" width="2" height="1" fill="#23142f"/>
<rect x="5" y="27" width="2" height="1" fill="#23142f"/>
<rect x="7" y="27" width="3" height="1" fill="#5b3a86"/>
<rect x="10" y="27" width="15" height="1" fill="#45275e"/>
<rect x="25" y="27" width="2" height="1" fill="#23142f"/>
<rect x="6" y="28" width="3" height="1" fill="#23142f"/>
<rect x="9" y="28" width="1" height="1" fill="#5b3a86"/>
<rect x="10" y="28" width="2" height="1" fill="#45275e"/>
<rect x="12" y="28" width="8" height="1" fill="#5b3a86"/>
<rect x="20" y="28" width="3" height="1" fill="#45275e"/>
<rect x="23" y="28" width="3" height="1" fill="#23142f"/>
<rect x="8" y="29" width="3" height="1" fill="#23142f"/>
<rect x="11" y="29" width="4" height="1" fill="#45275e"/>
<rect x="15" y="29" width="2" height="1" fill="#5b3a86"/>
<rect x="17" y="29" width="4" height="1" fill="#45275e"/>
<rect x="21" y="29" width="3" height="1" fill="#23142f"/>
<rect x="10" y="30" width="4" height="1" fill="#23142f"/>
<rect x="14" y="30" width="4" height="1" fill="#45275e"/>
<rect x="18" y="30" width="4" height="1" fill="#23142f"/>
<rect x="13" y="31" width="6" height="1" fill="#23142f"/>
</svg>
