<svg xmlns="http://www.w3.org/2000/svg" viewBox="0 0 64 64" width="512" height="512"><defs>
<linearGradient id="ring" x1="0" y1="0" x2="1" y2="1"><stop offset="0" stop-color="#7ff0a8"/><stop offset=".45" stop-color="#2fc56a"/><stop offset="1" stop-color="#17804a"/></linearGradient>
<linearGradient id="ringIn" x1="1" y1="1" x2="0" y2="0"><stop offset="0" stop-color="#8ff5b5"/><stop offset=".5" stop-color="#2fc56a"/><stop offset="1" stop-color="#1a8a4c"/></linearGradient>
<radialGradient id="field" cx=".42" cy=".32" r=".75"><stop offset="0" stop-color="#7350a3"/><stop offset=".6" stop-color="#5b3a86"/><stop offset="1" stop-color="#3a2257"/></radialGradient>
<linearGradient id="cream" x1="0" y1="0" x2="0" y2="1"><stop offset="0" stop-color="#fffaee"/><stop offset="1" stop-color="#f1e1bb"/></linearGradient>
</defs><circle cx="32" cy="32" r="32" fill="url(#ring)"/><circle cx="32" cy="32" r="29" fill="url(#ringIn)"/><circle cx="32" cy="32" r="27.6" fill="#1d6b3c"/><circle cx="32" cy="32" r="27" fill="url(#field)"/><g opacity=".28" transform="translate(0 1.4)" fill="#1a0f26"><path d="M26 12H38A6 6 0 0 1 44 18V22A6 6 0 0 1 38 28H31C29 30.5 26.5 32.2 23 33C24.2 31.4 24.6 29.8 24.4 28A6 6 0 0 1 20 22V18A6 6 0 0 1 26 12Z"/><path d="M18 34H40V41A7 7 0 0 1 33 48H25A7 7 0 0 1 18 41Z"/><path d="M40 36.5H41.5A3.75 3.75 0 0 1 41.5 44H39.5" fill="none" stroke="#1a0f26" stroke-width="3.2"/><rect x="16" y="50" width="30" height="2.6" rx="1.3"/></g>
<path d="M26 12H38A6 6 0 0 1 44 18V22A6 6 0 0 1 38 28H31C29 30.5 26.5 32.2 23 33C24.2 31.4 24.6 29.8 24.4 28A6 6 0 0 1 20 22V18A6 6 0 0 1 26 12Z" fill="url(#cream)"/>
<circle cx="26" cy="20" r="2" fill="#5b3a86"/>
<circle cx="32" cy="20" r="2" fill="#5b3a86"/>
<circle cx="38" cy="20" r="2" fill="#5b3a86"/>
<path d="M40 36.5H41.5A3.75 3.75 0 0 1 41.5 44H39.5" fill="none" stroke="url(#cream)" stroke-width="3.2"/>
<path d="M18 34H40V41A7 7 0 0 1 33 48H25A7 7 0 0 1 18 41Z" fill="url(#cream)"/>
<path d="M20 34H38V35.2Q29 37 20 35.2Z" fill="#e0a526"/>
<rect x="16" y="50" width="30" height="2.6" rx="1.3" fill="url(#cream)"/></svg>
