<svg xmlns="http://www.w3.org/2000/svg" viewBox="0 0 16 16" width="256" height="256" shape-rendering="crispEdges">
<rect x="5" y="0" width="6" height="1" fill="#5b3a86"/>
<rect x="3" y="1" width="10" height="1" fill="#5b3a86"/>
<rect x="2" y="2" width="3" height="1" fill="#5b3a86"/>
<rect x="5" y="2" width="7" height="1" fill="#fbf1d6"/>
<rect x="12" y="2" width="2" height="1" fill="#5b3a86"/>
<rect x="1" y="3" width="3" height="1" fill="#5b3a86"/>
<rect x="4" y="3" width="2" height="1" fill="#fbf1d6"/>
<rect x="6" y="3" width="1" height="1" fill="#5b3a86"/>
<rect x="7" y="3" width="1" height="1" fill="#fbf1d6"/>
<rect x="8" y="3" width="1" height="1" fill="#5b3a86"/>
<rect x="9" y="3" width="1" height="1" fill="#fbf1d6"/>
<rect x="10" y="3" width="1" height="1" fill="#5b3a86"/>
<rect x="11" y="3" width="2" height="1" fill="#fbf1d6"/>
<rect x="13" y="3" width="2" height="1" fill="#5b3a86"/>
<rect x="1" y="4" width="4" height="1" fill="#5b3a86"/>
<rect x="5" y="4" width="7" height="1" fill="#fbf1d6"/>
<rect x="12" y="4" width="3" height="1" fill="#5b3a86"/>
<rect x="0" y="5" width="5" height="1" fill="#5b3a86"/>
<rect x="5" y="5" width="1" height="1" fill="#fbf1d6"/>
<rect x="6" y="5" width="10" height="1" fill="#5b3a86"/>
<rect x="0" y="6" width="4" height="1" fill="#5b3a86"/>
<rect x="4" y="6" width="1" height="1" fill="#fbf1d6"/>
<rect x="5" y="6" width="11" height="1" fill="#5b3a86"/>
<rect x="0" y="7" width="16" height="1" fill="#5b3a86"/>
<rect x="0" y="8" width="4" height="1" fill="#5b3a86"/>
<rect x="4" y="8" width="1" height="1" fill="#fbf1d6"/>
<rect x="5" y="8" width="5" height="1" fill="#e0a526"/>
<rect x="10" y="8" width="1" height="1" fill="#fbf1d6"/>
<rect x="11" y="8" width="5" height="1" fill="#5b3a86"/>
<rect x="0" y="9" width="4" height="1" fill="#5b3a86"/>
<rect x="4" y="9" width="9" height="1" fill="#fbf1d6"/>
<rect x="13" y="9" width="3" height="1" fill="#5b3a86"/>
<rect x="0" y="10" width="4" height="1" fill="#5b3a86"/>
<rect x="4" y="10" width="7" height="1" fill="#fbf1d6"/>
<rect x="11" y="10" width="1" height="1" fill="#5b3a86"/>
<rect x="12" y="10" width="1" height="1" fill="#fbf1d6"/>
<rect x="13" y="10" width="3" height="1" fill="#5b3a86"/>
<rect x="1" y="11" width="4" height="1" fill="#5b3a86"/>
<rect x="5" y="11" width="7" height="1" fill="#fbf1d6"/>
<rect x="12" y="11" width="3" height="1" fill="#5b3a86"/>
<rect x="1" y="12" width="14" height="1" fill="#5b3a86"/>
<rect x="2" y="13" width="2" height="1" fill="#5b3a86"/>
<rect x="4" y="13" width="9" height="1" fill="#fbf1d6"/>
<rect x="13" y="13" width="1" height="1" fill="#5b3a86"/>
<rect x="3" y="14" width="10" height="1" fill="#5b3a86"/>
<rect x="5" y="15" width="6" height="1" fill="#5b3a86"/>
</svg>
